HIERARCHY
ROOT Hips
{
  OFFSET -10.376 39.2435 -10.9941
  CHANNELS 6 Xposition Yposition Zposition Zrotation Xrotation Yrotation
  JOINT LeftHip
  {
    OFFSET 3.43 1.20792e-013 -1.86517e-014
    CHANNELS 6 Xposition Yposition Zposition Zrotation Xrotation Yrotation
    JOINT LeftKnee
    {
      OFFSET 1.06581e-014 -18.47 4.44089e-015
      CHANNELS 6 Xposition Yposition Zposition Zrotation Xrotation Yrotation
      JOINT LeftAnkle
      {
        OFFSET -1.06581e-014 -17.95 -3.55271e-015
        CHANNELS 6 Xposition Yposition Zposition Zrotation Xrotation Yrotation
        End Site
        {
          OFFSET 0 -3.12 0
        }
      }
    }
  }
  JOINT RightHip
  {
    OFFSET -3.43 0 -5.32907e-015
    CHANNELS 6 Xposition Yposition Zposition Zrotation Xrotation Yrotation
    JOINT RightKnee
    {
      OFFSET 5.32907e-015 -18.47 2.70894e-014
      CHANNELS 6 Xposition Yposition Zposition Zrotation Xrotation Yrotation
      JOINT RightAnkle
      {
        OFFSET 7.99361e-015 -17.95 1.06581e-014
        CHANNELS 6 Xposition Yposition Zposition Zrotation Xrotation Yrotation
        End Site
        {
          OFFSET 0 -3.12 0
        }
      }
    }
  }
  JOINT Chest
  {
    OFFSET 0 4.57 -1.33227e-014
    CHANNELS 6 Xposition Yposition Zposition Zrotation Xrotation Yrotation
    JOINT Chest2
    {
      OFFSET 0 6.57 -1.11022e-015
      CHANNELS 6 Xposition Yposition Zposition Zrotation Xrotation Yrotation
      JOINT LeftCollar
      {
        OFFSET 1.06 4.19 1.76
        CHANNELS 6 Xposition Yposition Zposition Zrotation Xrotation Yrotation
        JOINT LeftShoulder
        {
          OFFSET 5.81 2.13163e-014 1.77636e-014
          CHANNELS 6 Xposition Yposition Zposition Zrotation Xrotation Yrotation
          JOINT LeftElbow
          {
            OFFSET -7.10543e-015 -12.08 -3.90799e-014
            CHANNELS 6 Xposition Yposition Zposition Zrotation Xrotation Yrotation
            JOINT LeftWrist
            {
              OFFSET -7.10543e-015 -9.82 1.22125e-015
              CHANNELS 6 Xposition Yposition Zposition Zrotation Xrotation Yrotation
              End Site
              {
                OFFSET 0 -7.37 0
              }
            }
          }
        }
      }
      JOINT RightCollar
      {
        OFFSET -1.06 4.19 1.76
        CHANNELS 6 Xposition Yposition Zposition Zrotation Xrotation Yrotation
        JOINT RightShoulder
        {
          OFFSET -6.06 7.10543e-014 2.93099e-014
          CHANNELS 6 Xposition Yposition Zposition Zrotation Xrotation Yrotation
          JOINT RightElbow
          {
            OFFSET 3.90799e-014 -11.08 -2.13163e-014
            CHANNELS 6 Xposition Yposition Zposition Zrotation Xrotation Yrotation
            JOINT RightWrist
            {
              OFFSET -7.10543e-015 -9.82 2.66454e-015
              CHANNELS 6 Xposition Yposition Zposition Zrotation Xrotation Yrotation
              End Site
              {
                OFFSET 0 -7.14001 0
              }
            }
          }
        }
      }
      JOINT Neck
      {
        OFFSET -4.9738e-014 4.05 -7.54952e-015
        CHANNELS 6 Xposition Yposition Zposition Zrotation Xrotation Yrotation
        JOINT Head
        {
          OFFSET 3.55271e-015 5.19 -3.55271e-015
          CHANNELS 6 Xposition Yposition Zposition Zrotation Xrotation Yrotation
          End Site
          {
            OFFSET 0 4.14001 0
          }
        }
      }
    }
  }
}
MOTION
Frames:	7
Frame Time:	0.0333333
17.4233 39.5859 -4.8024 0.833797 -0.844966 0.532672 3.43 2.00007e-013 -1.86517e-014 5.19422 3.44983 5.8705 1.06581e-014 -18.47 4.44089e-015 1.37698 3.49313 0.430764 -1.06581e-014 -17.95 -3.55271e-015 -7.70512 -5.35422 -0.360993 -3.43 -8.77076e-015 -5.32907e-015 -7.22984 4.41249 -5.19868 5.32907e-015 -18.47 1.06874e-014 -0.752644 4.3063 -4.98521 7.99361e-015 -17.95 -3.48992e-015 8.11085 -6.53095 0.463557 0 4.57 -1.33227e-014 -0.615427 -4.21306 -0.351253 0 6.57 -1.11022e-015 -0.533557 -3.85346 -0.353951 1.06 4.19 1.76 9.16246 0.455059 1.57151 5.81 2.82163e-014 -9.77584e-015 87.6209 -0.357209 19.2204 3.55104e-014 -12.08 -2.12635e-014 -5.58861 -1.16296e-013 -22.2412 -7.10543e-015 -9.82 1.22125e-015 1.31804 0.728227 -0.00774097 -1.06 4.19 1.76 -8.69443 0.451702 -1.50456 -6.06 7.99014e-015 2.93099e-014 -89.9295 11.948 5.22719 -1.39131e-014 -11.08 2.5133e-015 0.689469 -1.96854 2.0523 -7.10543e-015 -9.82 2.66454e-015 10.3801 -9.6211 0.875908 -4.9738e-014 4.05 -7.54952e-015 0.176459 17.4658 0.00854982 3.55271e-015 5.19 -3.55271e-015 -0.03342 -3.37331 0.085415 
17.4193 39.6512 -4.78818 0.748089 -0.635695 0.320232 3.43 3.61378e-014 -1.86517e-014 5.13348 4.47357 5.94338 1.06581e-014 -18.47 4.44089e-015 1.35627 0.886978 0.757913 -1.06581e-014 -17.95 -3.55271e-015 -7.66812 -3.95881 -0.265366 -3.43 5.82312e-014 -5.32907e-015 -6.89238 4.673 -5.21366 5.32907e-015 -18.47 1.07544e-014 -0.752941 3.02536 -7.85579 7.99361e-015 -17.95 -3.32416e-015 8.08897 -5.37858 0.380573 0 4.57 -1.33227e-014 -0.522764 -4.37042 -0.187291 0 6.57 -1.11022e-015 -0.461279 -3.99663 -0.200832 1.06 4.19 1.76 9.32711 0.453647 1.58774 5.81 2.73849e-014 -9.81608e-015 87.4995 -0.477289 19.1674 3.56427e-014 -12.08 -2.1059e-014 -5.65915 -1.14893e-013 -22.2229 -7.10543e-015 -9.82 1.22125e-015 1.14283 1.37878 -0.0134371 -1.06 4.19 1.76 -8.68128 0.457326 -1.57136 -6.06 2.33251e-014 2.93099e-014 -89.8533 11.9864 5.19252 -1.2003e-014 -11.08 1.07469e-015 0.68509 -1.96704 1.98843 -7.10543e-015 -9.82 2.66454e-015 10.1891 -9.70091 0.866972 -4.9738e-014 4.05 -7.54952e-015 0.306434 17.5188 -0.106731 3.55271e-015 5.19 -3.55271e-015 -0.375566 -3.19267 0.10403 
17.3878 39.6285 -4.80192 0.38963 0.0584106 -0.0541338 3.43 3.11362e-013 -1.86517e-014 5.58243 3.71417 6.16569 1.06581e-014 -18.47 4.44089e-015 1.30105 1.13807 0.961911 -1.06581e-014 -17.95 -3.55271e-015 -7.73143 -4.08899 -0.276419 -3.43 2.46969e-013 -5.32907e-015 -6.49597 3.79931 -4.88488 5.32907e-015 -18.47 1.07412e-014 -0.80423 3.25212 -7.82315 7.99361e-015 -17.95 -3.29433e-015 8.08014 -5.48299 0.387554 0 4.57 -1.33227e-014 -0.245098 -4.88796 0.0334145 0 6.57 -1.11022e-015 -0.225368 -4.46778 0.014428 1.06 4.19 1.76 9.42356 0.460606 1.68649 5.81 2.65388e-014 -9.88296e-015 87.4024 -0.606552 19.2756 3.60909e-014 -12.08 -2.08652e-014 -5.56731 -1.15074e-013 -21.7589 -7.10543e-015 -9.82 1.22125e-015 1.46899 0.54431 -0.00719392 -1.06 4.19 1.76 -8.62433 0.458236 -1.57044 -6.06 4.05474e-014 2.93099e-014 -89.9301 11.9973 5.29551 -8.95653e-015 -11.08 -1.67136e-015 0.722847 -1.96474 1.55745 -7.10543e-015 -9.82 2.66454e-015 9.95429 -9.67924 0.84501 -4.9738e-014 4.05 -7.54952e-015 0.304534 17.6997 -0.150686 3.55271e-015 5.19 -3.55271e-015 -0.385729 -2.9938 0.0613435 
17.3877 39.6251 -4.77785 0.445076 0.0251699 -0.0490242 3.43 1.67155e-013 -1.86517e-014 5.54761 3.77868 6.15486 1.06581e-014 -18.47 4.44089e-015 1.29207 1.20449 0.802943 -1.06581e-014 -17.95 -3.55271e-015 -7.737 -4.20527 -0.284491 -3.43 -2.66454e-014 -5.32907e-015 -6.54801 3.92268 -4.90317 5.32907e-015 -18.47 1.06482e-014 -0.828315 3.25335 -7.5571 7.99361e-015 -17.95 -3.39949e-015 8.09647 -5.60369 0.396909 0 4.57 -1.33227e-014 -0.256398 -4.86118 0.03514 0 6.57 -1.11022e-015 -0.235817 -4.44352 0.0150439 1.06 4.19 1.76 9.45891 0.472589 1.82979 5.81 2.56791e-014 -9.97629e-015 87.5322 -0.698952 19.153 3.68509e-014 -12.08 -2.0682e-014 -5.67884 -1.15992e-013 -21.8189 -7.10543e-015 -9.82 1.22125e-015 1.40274 0.522538 -0.00639402 -1.06 4.19 1.76 -8.68803 0.463653 -1.65128 -6.06 3.70086e-014 2.93099e-014 -89.8301 11.9423 5.275 -4.79317e-015 -11.08 -5.68959e-015 0.708369 -1.98456 2.1877 -7.10543e-015 -9.82 2.66454e-015 10.1512 -9.85284 0.877254 -4.9738e-014 4.05 -7.54952e-015 0.187833 17.7014 -0.0749882 3.55271e-015 5.19 -3.55271e-015 -0.13173 -2.6425 0.0274644 
17.3878 39.6232 -4.76057 0.544637 0.000480535 -0.125759 3.43 -3.36205e-013 -1.86517e-014 5.42928 3.82786 6.09593 1.06581e-014 -18.47 4.44089e-015 1.29609 1.2452 1.07647 -1.06581e-014 -17.95 -3.55271e-015 -7.74355 -4.24251 -0.287255 -3.43 7.10543e-014 -5.32907e-015 -6.67819 3.89202 -4.97875 5.32907e-015 -18.47 1.04759e-014 -0.822189 3.36876 -7.64934 7.99361e-015 -17.95 -3.63868e-015 8.13673 -5.6358 0.401175 0 4.57 -1.33227e-014 -0.315893 -4.86883 0.0444167 0 6.57 -1.11022e-015 -0.290572 -4.45032 0.0203375 1.06 4.19 1.76 9.50838 0.479935 1.92191 5.81 2.48066e-014 -1.00959e-014 87.5322 -0.681127 19.2872 3.79185e-014 -12.08 -2.05089e-014 -5.60336 -1.17769e-013 -22.1617 -7.10543e-015 -9.82 1.22125e-015 1.55777 0.465768 -0.00631165 -1.06 4.19 1.76 -8.69889 0.455764 -1.55572 -6.06 -1.73889e-014 2.93099e-014 -89.6806 11.9529 5.37872 4.67776e-016 -11.08 -1.09447e-014 0.728169 -2.0058 1.87978 -7.10543e-015 -9.82 2.66454e-015 10.1276 -9.68557 0.860296 -4.9738e-014 4.05 -7.54952e-015 0.225812 17.9363 0.0243989 3.55271e-015 5.19 -3.55271e-015 -0.282085 -2.86733 0.164141 
17.3696 39.624 -4.74126 0.383735 -0.159028 -0.0718567 3.43 -4.06453e-013 -1.86517e-014 5.61869 3.96955 6.24842 1.06581e-014 -18.47 4.44089e-015 1.26651 1.27174 1.06893 -1.06581e-014 -17.95 -3.55271e-015 -7.74821 -4.23041 -0.286613 -3.43 1.82077e-013 -5.32907e-015 -6.47398 4.10622 -4.89241 5.32907e-015 -18.47 1.02247e-014 -0.813226 3.24839 -7.77983 7.99361e-015 -17.95 -4.01096e-015 8.08873 -5.5723 0.394295 0 4.57 -1.33227e-014 -0.172941 -4.75591 0.0149231 0 6.57 -1.11022e-015 -0.158212 -4.34732 0.00492962 1.06 4.19 1.76 9.47979 0.487912 2.00806 5.81 2.39221e-014 -1.02414e-014 87.4458 -0.719647 19.343 3.92897e-014 -12.08 -2.0346e-014 -5.56109 -1.20848e-013 -22.1681 -7.10543e-015 -9.82 1.22125e-015 1.67618 0.423258 -0.00646597 -1.06 4.19 1.76 -8.68055 0.451487 -1.49877 -6.06 -1.2908e-013 2.93099e-014 -89.7125 12.0474 5.46828 6.80697e-015 -11.08 -1.74016e-014 0.739046 -1.9995 2.06891 -7.10543e-015 -9.82 2.66454e-015 10.1573 -9.74261 0.868353 -4.9738e-014 4.05 -7.54952e-015 -0.00154496 18.0849 0.17053 3.55271e-015 5.19 -3.55271e-015 0.00113491 -2.86137 0.158353 
17.3603 39.625 -4.74095 0.358139 -0.128387 0.0517524 3.43 -3.13418e-013 -1.86517e-014 5.66965 3.83941 6.24683 1.06581e-014 -18.47 4.44089e-015 1.28984 1.46505 0.851535 -1.06581e-014 -17.95 -3.55271e-015 -7.77181 -4.34885 -0.29554 -3.43 -2.73115e-013 -5.32907e-015 -6.42164 4.14106 -4.8677 5.32907e-015 -18.47 9.89495e-015 -0.822663 3.24541 -7.73261 7.99361e-015 -17.95 -4.51536e-015 8.08108 -5.6464 0.399193 0 4.57 -1.33227e-014 -0.134316 -4.74244 0.0217486 0 6.57 -1.11022e-015 -0.123556 -4.33499 0.0143012 1.06 4.19 1.76 9.55799 0.485752 1.9954 5.81 2.30267e-014 -1.04129e-014 87.2608 -0.747308 19.354 4.09601e-014 -12.08 -2.01928e-014 -5.52786 -1.2506e-013 -21.9827 -7.10543e-015 -9.82 1.22125e-015 1.80114 -0.217676 0.00522317 -1.06 4.19 1.76 -8.77708 0.460942 -1.63585 -6.06 -1.91758e-013 2.93099e-014 -89.4468 12.046 5.48732 1.42051e-014 -11.08 -2.50248e-014 0.772352 -1.98879 1.27099 -7.10543e-015 -9.82 2.66454e-015 9.74517 -9.24383 0.789534 -4.9738e-014 4.05 -7.54952e-015 -0.160146 18.2055 0.317722 3.55271e-015 5.19 -3.55271e-015 0.22753 -2.95228 0.18689 
